<svg width="1200" height="900" viewBox="0 0 1200 900" fill="none" xmlns="http://www.w3.org/2000/svg">
  <rect width="1200" height="900" rx="48" fill="#F5F9FF"/>
  <rect x="72" y="72" width="1056" height="756" rx="40" fill="url(#bg)"/>
  <rect x="210" y="218" width="780" height="180" rx="28" fill="#FDFEFF" stroke="#D8E7FF" stroke-width="16"/>
  <rect x="264" y="266" width="672" height="42" rx="21" fill="#B8D2FF"/>
  <rect x="264" y="326" width="410" height="26" rx="13" fill="#D7E7FF"/>
  <path d="M348 552C404 510 476 486 550 486C670 486 774 556 820 660" stroke="#1D4ED8" stroke-width="26" stroke-linecap="round"/>
  <path d="M752 500L830 578" stroke="#0EA5E9" stroke-width="34" stroke-linecap="round"/>
  <circle cx="864" cy="614" r="70" fill="#E0F2FE" stroke="#0284C7" stroke-width="18"/>
  <path d="M848 578C848 560 862 546 880 546C898 546 912 560 912 578C912 620 864 626 864 666" stroke="#0284C7" stroke-width="18" stroke-linecap="round"/>
  <circle cx="864" cy="706" r="14" fill="#0284C7"/>
  <text x="96" y="760" fill="#0F172A" font-size="56" font-weight="700" font-family="Arial, sans-serif">AC Cleaning &amp; Maintenance</text>
  <text x="96" y="820" fill="#1E3A8A" font-size="28" font-family="Arial, sans-serif">Deep clean, wash, coil care and performance checks</text>
  <defs>
    <linearGradient id="bg" x1="72" y1="72" x2="1128" y2="828" gradientUnits="userSpaceOnUse">
      <stop stop-color="#E0F2FE"/>
      <stop offset="1" stop-color="#DBEAFE"/>
    </linearGradient>
  </defs>
</svg>
