<svg width="1200" height="900" viewBox="0 0 1200 900" fill="none" xmlns="http://www.w3.org/2000/svg">
  <rect width="1200" height="900" rx="48" fill="#F8FAFC"/>
  <rect x="72" y="72" width="1056" height="756" rx="40" fill="url(#bg)"/>
  <rect x="206" y="212" width="788" height="188" rx="32" fill="#FFF" stroke="#FCE7F3" stroke-width="16"/>
  <rect x="264" y="266" width="672" height="44" rx="22" fill="#FBCFE8"/>
  <rect x="264" y="332" width="420" height="24" rx="12" fill="#FCE7F3"/>
  <circle cx="426" cy="608" r="94" fill="#FDF2F8" stroke="#BE185D" stroke-width="18"/>
  <circle cx="426" cy="608" r="34" fill="#F9A8D4"/>
  <path d="M426 492V536M426 680V724M542 608H498M354 608H310M505 529L474 560M378 656L347 687M505 687L474 656M378 560L347 529" stroke="#BE185D" stroke-width="18" stroke-linecap="round"/>
  <rect x="666" y="520" width="150" height="168" rx="32" fill="#7C3AED"/>
  <path d="M816 554H870C904 554 932 582 932 616V640" stroke="#6D28D9" stroke-width="20" stroke-linecap="round"/>
  <text x="96" y="760" fill="#111827" font-size="56" font-weight="700" font-family="Arial, sans-serif">AC Compressor &amp; Spare Parts</text>
  <text x="96" y="820" fill="#7C3AED" font-size="28" font-family="Arial, sans-serif">Compressor, PCB, sensor and essential parts replacement</text>
  <defs>
    <linearGradient id="bg" x1="72" y1="72" x2="1128" y2="828" gradientUnits="userSpaceOnUse">
      <stop stop-color="#FDF2F8"/>
      <stop offset="1" stop-color="#EDE9FE"/>
    </linearGradient>
  </defs>
</svg>
